<svg id="Layer_1" enable-background="new 0 0 512.112 512.112" height="16" viewBox="0 0 512.112 512.112" width="16" xmlns="http://www.w3.org/2000/svg"><g><path d="m259.203 400.653c0-52.089 28.315-97.683 70.358-122.216-134.643-99.299-330.486-.288-329.558 168.283v50.333c0 8.284 6.716 15 15 15h298.611c-33.098-25.903-54.411-66.208-54.411-111.4z"/><path d="m327.236 119.486c0-65.961-53.472-119.433-119.433-119.433-158.426 6.291-158.38 232.6.001 238.867 65.96 0 119.432-53.473 119.432-119.434z"/><path d="m495.757 342.779-84.548 84.548c-5.856 5.858-15.361 5.854-21.213 0l-32.133-32.134c-5.858-5.858-5.858-15.355 0-21.213 5.857-5.857 15.355-5.859 21.213 0l21.526 21.527 76.115-76.115c-69.666-66.239-187.817-15.884-187.514 81.262-.001 61.425 49.973 111.399 111.399 111.399 86.014.84 140.492-96.822 95.155-169.274z"/></g></svg>